<mxfile host="app.diagrams.net" modified="2024-04-16T19:31:13.800Z" agent="Mozilla/5.0 (Windows NT 10.0; Win64; x64) AppleWebKit/537.36 (KHTML, like Gecko) Chrome/123.0.0.0 Safari/537.36" etag="br3FLf9g7CjTcQpDCFi1" version="24.2.5" type="device">
  <diagram name="PÃ¡gina-1" id="KFmG0E_ZlPh1pJTW9s5c">
    <mxGraphModel dx="589" dy="373" grid="1" gridSize="10" guides="1" tooltips="1" connect="1" arrows="1" fold="1" page="1" pageScale="1" pageWidth="827" pageHeight="1169" math="0" shadow="0">
      <root>
        <mxCell id="0" />
        <mxCell id="1" parent="0" />
        <mxCell id="j0wzCAqKTjy7KJ2Pnug7-1" value="" style="rounded=0;whiteSpace=wrap;html=1;" vertex="1" parent="1">
          <mxGeometry x="330" y="200" width="170" height="280" as="geometry" />
        </mxCell>
        <mxCell id="j0wzCAqKTjy7KJ2Pnug7-2" value="Sistema" style="text;html=1;align=center;verticalAlign=middle;resizable=0;points=[];autosize=1;strokeColor=none;fillColor=none;" vertex="1" parent="1">
          <mxGeometry x="330" y="170" width="70" height="30" as="geometry" />
        </mxCell>
        <mxCell id="j0wzCAqKTjy7KJ2Pnug7-3" value="User" style="shape=umlActor;verticalLabelPosition=bottom;verticalAlign=top;html=1;outlineConnect=0;" vertex="1" parent="1">
          <mxGeometry x="190" y="190" width="30" height="60" as="geometry" />
        </mxCell>
      </root>
    </mxGraphModel>
  </diagram>
</mxfile>
